<svg width="16" height="16" viewBox="0 0 16 16" fill="none" xmlns="http://www.w3.org/2000/svg">
<g id="Icon/Small/PDF">
<g id="Union">
<path d="M10 9H11V14H10V13H7V12H8V11H9V12H10V11H9V10H10V9Z" fill="#FF0000"/>
<path d="M7 13V14H6V13H7Z" fill="#FF0000"/>
</g>
<g id="Union_2">
<path d="M13 3H12V14H2V15H13V3Z" fill="#C0C0C0"/>
<path d="M7 12H6V13H7V12Z" fill="#C0C0C0"/>
<path d="M8 11V12H7V11H8Z" fill="#C0C0C0"/>
<path d="M9 10H8V11H9V10Z" fill="#C0C0C0"/>
<path d="M9 10H10V9H9V10Z" fill="#C0C0C0"/>
</g>
<g id="Union_3">
<path d="M11 5H3V6H11V5Z" fill="#0000FF"/>
<path d="M11 7H3V8H11V7Z" fill="#0000FF"/>
<path d="M3 9H8V10H3V9Z" fill="#0000FF"/>
<path d="M6 11H3V12H6V11Z" fill="#0000FF"/>
</g>
<g id="Union_4">
<path d="M5 1H4V2H5V1Z" fill="#808080"/>
<path d="M2 2H1V15H2V2Z" fill="#808080"/>
<path d="M6 1H7V2H6V1Z" fill="#808080"/>
<path d="M9 1H8V2H9V1Z" fill="#808080"/>
<path d="M10 1H11V2H10V1Z" fill="#808080"/>
<path d="M13 1H12V2H13V1Z" fill="#808080"/>
</g>
<g id="Union_5">
<path d="M3 0H4V1H3V0Z" fill="black"/>
<path d="M3 2H2V1H3V2Z" fill="black"/>
<path d="M3 2H4V3H3V2Z" fill="black"/>
<path d="M5 0H6V1H5V0Z" fill="black"/>
<path d="M6 2H5V3H6V2Z" fill="black"/>
<path d="M7 0H8V1H7V0Z" fill="black"/>
<path d="M8 2H7V3H8V2Z" fill="black"/>
<path d="M9 0H10V1H9V0Z" fill="black"/>
<path d="M10 2H9V3H10V2Z" fill="black"/>
<path d="M11 0H12V1H11V0Z" fill="black"/>
<path d="M12 2H11V3H12V2Z" fill="black"/>
<path d="M13 2H14V15H13V2Z" fill="black"/>
<path d="M13 15V16H2V15H13Z" fill="black"/>
</g>
<g id="Union_6">
<path d="M11 1H12V2H11V1Z" fill="white"/>
<path fill-rule="evenodd" clip-rule="evenodd" d="M12 3H11V2H10V1H9V2H8V1H7V2H6V1H5V2H4V1H3V2H2V14H6V12H7V11H8V10H9V9H11V14H12V3ZM8 10V9H3V10H8ZM6 12V11H3V12H6ZM3 2H4V3H3V2ZM5 2V3H6V2H5ZM7 2H8V3H7V2ZM9 2V3H10V2H9ZM11 8V7H3V8H11ZM11 6V5H3V6H11Z" fill="white"/>
<path d="M12 3H13V2H12V3Z" fill="white"/>
<path d="M9 11H10V12H9V11Z" fill="white"/>
<path d="M10 13H7V14H10V13Z" fill="white"/>
</g>
</g>
</svg>
