<svg xmlns="http://www.w3.org/2000/svg" width="16" height="16" viewBox="0 0 16 16" fill="none">
  <path fill-rule="evenodd" clip-rule="evenodd" d="M6 0H5V4H6V6H7V7H6V9H4V10H3V13H4V14H6V13H7V8H8V12H9V13H11V12H12V9H11V8H9V7H8V6H9V4H10V0H9V3H8V5H7V3H6V0ZM11 9H9V12H11V9ZM6 13V10H4V13H6Z" fill="#808080"/>
  <path d="M6 1H7V3H6V1Z" fill="white"/>
  <path d="M4 11H5V13H4V11Z" fill="white"/>
  <path d="M5 11H6V10H5V11Z" fill="white"/>
  <path d="M8 8H7V14H5V15H7V14H8V8Z" fill="white"/>
  <path d="M9 4H10V1H11V5H10V7H8V6H9V4Z" fill="white"/>
  <path d="M13 10H12V13H10V14H12V13H13V10Z" fill="white"/>
  <path d="M9 9H11V10H10V12H9V9Z" fill="white"/>
  <path d="M7 4H8V5H7V4Z" fill="white"/>
</svg>