<svg xmlns="http://www.w3.org/2000/svg" width="16" height="16" viewBox="0 0 16 16" fill="none">
  <path d="M5 4H7V6H6V5H5V4Z" fill="#800000"/>
  <path d="M6 7V6H5V8H7V7H6Z" fill="#800000"/>
  <path d="M3 5H2V6H3V8H4V4H3V5Z" fill="#800000"/>
  <path d="M1 3H2V4H1V3Z" fill="#C0C0C0"/>
  <path d="M3 4H2V5H1V6H2V7H1V8H2V9H3V8H2V7H3V6H2V5H3V4Z" fill="#C0C0C0"/>
  <path d="M4 4H3V3H4V4Z" fill="#C0C0C0"/>
  <path d="M5 4H4V5H5V6H4V7H5V6H6V7H7V6H8V5H7V6H6V5H5V4Z" fill="#C0C0C0"/>
  <path d="M5 4V3H6V4H5Z" fill="#C0C0C0"/>
  <path d="M7 3H8V4H7V3Z" fill="#C0C0C0"/>
  <path d="M4 8H5V9H4V8Z" fill="#C0C0C0"/>
  <path d="M2 3H3V4H2V3Z" fill="white"/>
  <path d="M2 4V5H1V4H2Z" fill="white"/>
  <path d="M4 3H5V4H4V3Z" fill="white"/>
  <path d="M7 3H6V4H7V5H8V4H7V3Z" fill="white"/>
  <path d="M1 6H2V7H1V6Z" fill="white"/>
  <path d="M3 8V7H2V8H1V9H2V8H3Z" fill="white"/>
  <path d="M4 8V9H3V8H4Z" fill="white"/>
  <path d="M5 8H4V7H5V8Z" fill="white"/>
  <path d="M5 8H6V9H5V8Z" fill="white"/>
  <path d="M5 5H4V6H5V5Z" fill="white"/>
  <path d="M7 6H8V7H7V6Z" fill="white"/>
  <path d="M9 7H10V8H9V7Z" fill="white"/>
  <path fill-rule="evenodd" clip-rule="evenodd" d="M9 9V8H8V9H7V10H8V11H7V12H8V13H9V14H10V13H11V14H12V13H13V12H14V11H13V12H12V11H11V12H10V11H9V10H10V9H9ZM9 9H8V10H9V9ZM9 12V13H10V12H9ZM9 12V11H8V12H9ZM11 12H12V13H11V12Z" fill="white"/>
  <path d="M11 9H12V10H11V9Z" fill="white"/>
  <path d="M12 8V9H13V10H14V9H13V8H12Z" fill="white"/>
  <path d="M12 8H11V7H12V8Z" fill="white"/>
  <path d="M9 1H10V6H13V7H11V10H14V8H15V13H14V11H10V7H8V6H9V1Z" fill="black"/>
  <path d="M7 8V7H8V8H7Z" fill="black"/>
  <path d="M7 13H6V11H1V10H6V8H7V10H8V11H7V13Z" fill="black"/>
  <path d="M8 14V13H7V14H8Z" fill="black"/>
  <path d="M10 14H8V15H13V14H14V13H13V14H11V13H10V14Z" fill="black"/>
  <path d="M14 8V7H13V8H14Z" fill="black"/>
  <path fill-rule="evenodd" clip-rule="evenodd" d="M9 7H8V8H7V9H8V10H9V11H8V12H7V13H8V14H9V13H10V12H11V13H12V14H13V13H14V12H13V11H12V12H11V11H10V10H9V9H10V8H9V7ZM9 8V9H8V8H9ZM12 12V13H13V12H12ZM10 11H9V12H8V13H9V12H10V11Z" fill="#FFFF00"/>
  <path fill-rule="evenodd" clip-rule="evenodd" d="M13 9H14V8H13V7H12V8H11V9H12V10H13V9ZM13 9H12V8H13V9Z" fill="#FFFF00"/>
  <path fill-rule="evenodd" clip-rule="evenodd" d="M9 0H0V10H6V9H1V3H8V6H9V0ZM1 2H2V1H1V2ZM6 2H3V1H6V2ZM7 2H8V1H7V2Z" fill="#000080"/>
  <path d="M1 1H2V2H1V1Z" fill="#0000FF"/>
  <path d="M7 1H8V2H7V1Z" fill="#0000FF"/>
  <path d="M6 1H3V2H6V1Z" fill="#0000FF"/>
</svg>