<svg xmlns="http://www.w3.org/2000/svg" width="16" height="16" viewBox="0 0 16 16" fill="none">
  <path d="M6 2H8V3H6V2Z" fill="#FFFF00"/>
  <path d="M6 3V4H5V3H6Z" fill="#FFFF00"/>
  <path d="M8 3H9V4H8V3Z" fill="#FFFF00"/>
  <path d="M8 3V4H6V3H8Z" fill="black"/>
  <path fill-rule="evenodd" clip-rule="evenodd" d="M9 1H5V2H1V3H0V13H1V14H6V13H1V3H4V4H3V6H11V4H10V3H13V8H14V3H13V2H9V1ZM8 2H6V3H5V4H4V5H10V4H9V3H8V2Z" fill="black"/>
  <path d="M14 12V13H8V12H14Z" fill="black"/>
  <path d="M11 10H8V11H11V10Z" fill="black"/>
  <path d="M14 9H13V10H14V9Z" fill="white"/>
  <path fill-rule="evenodd" clip-rule="evenodd" d="M12 11H15V14H7V8H12V11ZM8 10V11H11V10H8ZM8 12V13H14V12H8Z" fill="white"/>
  <rect x="4" y="4" width="6" height="1" fill="#C0C0C0"/>
  <path fill-rule="evenodd" clip-rule="evenodd" d="M13 7H6V15H16V10H15V9H14V8H13V7ZM14 9V10H13V9H14ZM7 14H15V11H12V8H7V14Z" fill="#000080"/>
  <path d="M4 10H3V11H4V10Z" fill="#808080"/>
  <path fill-rule="evenodd" clip-rule="evenodd" d="M2 4H1V5H2V6H1V7H2V8H1V9H2V10H1V11H2V12H1V13H2V12H3V13H4V12H5V13H6V12H5V11H6V10H5V9H6V8H5V7H6V6H5V7H4V6H3V5H2V4ZM3 7H2V6H3V7ZM3 8V7H4V8H3ZM3 9V8H2V9H3ZM4 9H3V10H2V11H3V12H4V11H5V10H4V9ZM4 9V8H5V9H4Z" fill="#808080"/>
  <path d="M2 4H3V3H2V4Z" fill="#808080"/>
  <path d="M10 4H11V7H12V6H13V5H12V4H13V3H12V4H11V3H10V4Z" fill="#808080"/>
  <path d="M7 6H8V7H7V6Z" fill="#808080"/>
  <path d="M9 6H10V7H9V6Z" fill="#808080"/>
  <path d="M4 9H3V10H4V9Z" fill="#808000"/>
  <path fill-rule="evenodd" clip-rule="evenodd" d="M2 3H1V4H2V5H1V6H2V7H1V8H2V9H1V10H2V11H1V12H2V13H3V12H4V13H5V12H6V11H5V10H6V9H5V8H6V7H7V6H6V7H5V6H4V7H3V6H2V5H3V4H4V3H3V4H2V3ZM3 8H2V7H3V8ZM4 8H3V9H2V10H3V11H2V12H3V11H4V12H5V11H4V10H5V9H4V8ZM4 8H5V7H4V8Z" fill="#808000"/>
  <path d="M9 6H8V7H9V6Z" fill="#808000"/>
  <path d="M10 6H11V7H10V6Z" fill="#808000"/>
  <path d="M12 5H11V6H12V7H13V6H12V5Z" fill="#808000"/>
  <path d="M12 4H13V5H12V4Z" fill="#808000"/>
  <path d="M12 4H11V3H12V4Z" fill="#808000"/>
</svg>