<svg xmlns="http://www.w3.org/2000/svg" width="16" height="16" viewBox="0 0 16 16" fill="none">
  <path d="M7 1H1V14H10V4H7V1Z" fill="white"/>
  <path d="M11 7H12V8H11V7Z" fill="white"/>
  <path d="M11 10H12V11H11V10Z" fill="white"/>
  <path d="M12 11H13V12H12V11Z" fill="white"/>
  <path fill-rule="evenodd" clip-rule="evenodd" d="M0 0H8V1H9V2H8V3H9V2H10V3H11V6H12V7H11V11H12V12H14V13H15V15H13V14H12V13H11V15H0V0ZM10 12H7V11H6V7H7V6H10V12ZM10 5V4H7V1H1V14H10V13H7V12H6V11H5V7H6V6H7V5H10Z" fill="black"/>
  <path d="M12 11V7H13V10H14V11H12Z" fill="black"/>
  <path d="M7 6H8V7H7V6Z" fill="#808080"/>
  <path d="M7 7V8H6V7H7Z" fill="#808080"/>
  <path d="M6 10H7V11H6V10Z" fill="#808080"/>
  <path d="M7 11H8V12H7V11Z" fill="#808080"/>
  <path d="M11 6H10V12H11V6Z" fill="#808080"/>
  <path d="M7 7V9H8V8H9V7H7Z" fill="#00FFFF"/>
  <path d="M10 10H9V11H10V10Z" fill="#00FFFF"/>
  <path d="M7 5H10V6H7V5Z" fill="black"/>
  <path d="M6 7V6H7V7H6Z" fill="black"/>
  <path d="M6 11H5V7H6V11Z" fill="black"/>
  <path d="M7 12H6V11H7V12Z" fill="black"/>
  <path d="M12 11H11V12H7V13H12V14H13V15H15V13H14V12H12V11Z" fill="black"/>
  <path d="M12 7H13V11H12V7Z" fill="black"/>
  <path d="M12 7H11V6H12V7Z" fill="black"/>
  <path d="M9 2H8V3H9V2Z" fill="#C0C0C0"/>
  <path d="M9 10H10V6H8V7H9V8H8V9H7V8H6V10H7V11H8V12H10V11H9V10Z" fill="#C0C0C0"/>
  <path d="M12 8H11V10H12V8Z" fill="#C0C0C0"/>
</svg>