<svg xmlns="http://www.w3.org/2000/svg" width="16" height="16" viewBox="0 0 16 16" fill="none">
  <path d="M6 3H11V4H6V3Z" fill="black"/>
  <path d="M10 5H5V6H10V5Z" fill="black"/>
  <path d="M13 8V9H14V8H13Z" fill="black"/>
  <path d="M13 8V7H12V8H13Z" fill="black"/>
  <path fill-rule="evenodd" clip-rule="evenodd" d="M14 1H5V2H4V4H3V6H2V7H1V8H0V13H1V14H2V15H13V14H14V13H15V10H16V6H15V5H13V3H14V1ZM11 7V5H12V3H13V2H5V4H4V6H3V7H11ZM12 7H11V8H1V9H11V8H12V9H13V11H14V10H15V8H14V7H15V6H14V7H13V6H12V7ZM13 13V14H12V13H13ZM13 12H14V13H13V12ZM12 12V10H1V12H12ZM11 13H2V14H11V13Z" fill="black"/>
  <rect x="7" y="10" width="3" height="1" fill="#808080"/>
  <rect x="7" y="11" width="3" height="1" fill="#FFFF00"/>
  <path fill-rule="evenodd" clip-rule="evenodd" d="M13 2H5V4H4V6H3V7H11V5H12V3H13V2ZM10 5H5V6H10V5ZM6 4H11V3H6V4Z" fill="white"/>
  <path fill-rule="evenodd" clip-rule="evenodd" d="M15 6H14V7H13V6H12V7H11V8H1V9H11V8H12V9H13V11H14V10H15V8H14V7H15V6ZM13 8V7H12V8H13ZM13 8H14V9H13V8Z" fill="#C0C0C0"/>
  <path d="M11 13H2V14H11V13Z" fill="#C0C0C0"/>
  <path d="M1 10H7V12H1V10Z" fill="#C0C0C0"/>
  <path d="M12 12V10H10V12H12Z" fill="#C0C0C0"/>
  <path d="M13 12H14V13H13V12Z" fill="#C0C0C0"/>
  <path d="M13 13V14H12V13H13Z" fill="#C0C0C0"/>
</svg>