<svg width="9" height="24" viewBox="0 0 9 24" fill="none" xmlns="http://www.w3.org/2000/svg">
<g filter="url(#filter0_ii_2079_5444)">
<mask id="path-1-inside-1_2079_5444" fill="white">
<path d="M0 18H9V24H0V18Z"/>
</mask>
<path d="M0 18H9V24H0V18Z" fill="#C0C0C0"/>
<path d="M9 24V25H10V24H9ZM0 24H-1V25H0V24ZM8 18V24H10V18H8ZM9 23H0V25H9V23ZM1 24V18H-1V24H1Z" fill="black" mask="url(#path-1-inside-1_2079_5444)"/>
</g>
<path d="M4 7H5V11H4V7Z" fill="black"/>
<path d="M3 11H4V12H3V11Z" fill="black"/>
<path d="M2 13V12H3V13H2Z" fill="black"/>
<path d="M1 14H2V13H1V14Z" fill="black"/>
<path d="M1 17V14H0V18H9V14H8V13H7V12H6V11H5V12H6V13H7V14H8V17H1Z" fill="black"/>
<path d="M3 7H4V6H3V7Z" fill="black"/>
<path d="M2 5V6H3V5H2Z" fill="black"/>
<path d="M1 4H2V5H1V4Z" fill="black"/>
<path d="M1 1V4H0V0H9V4H8V5H7V6H6V7H5V6H6V5H7V4H8V1H1Z" fill="black"/>
<path d="M7 1H1V4H2V5H3V6H4V5H3V4H2V2H7V1Z" fill="white"/>
<path d="M3 12H4V13H3V12Z" fill="white"/>
<path d="M2 14V13H3V14H2Z" fill="white"/>
<path d="M2 14V16H1V14H2Z" fill="white"/>
<path d="M7 2H2V4H3V5H4V6H5V5H6V4H7V2Z" fill="#C0C0C0"/>
<path d="M2 16H7V14H6V13H5V12H4V13H3V14H2V16Z" fill="#C0C0C0"/>
<path d="M7 1H8V4H7V1Z" fill="#808080"/>
<path d="M6 5V4H7V5H6Z" fill="#808080"/>
<path d="M5 6V5H6V6H5Z" fill="#808080"/>
<path d="M5 6V7H4V6H5Z" fill="#808080"/>
<path d="M5 11H4V12H5V13H6V14H7V16H1V17H8V14H7V13H6V12H5V11Z" fill="#808080"/>
<defs>
<filter id="filter0_ii_2079_5444" x="0" y="18" width="9" height="6" filterUnits="userSpaceOnUse" color-interpolation-filters="sRGB">
<feFlood flood-opacity="0" result="BackgroundImageFix"/>
<feBlend mode="normal" in="SourceGraphic" in2="BackgroundImageFix" result="shape"/>
<feColorMatrix in="SourceAlpha" type="matrix" values="0 0 0 0 0 0 0 0 0 0 0 0 0 0 0 0 0 0 127 0" result="hardAlpha"/>
<feOffset dx="2" dy="1"/>
<feComposite in2="hardAlpha" operator="arithmetic" k2="-1" k3="1"/>
<feColorMatrix type="matrix" values="0 0 0 0 1 0 0 0 0 1 0 0 0 0 1 0 0 0 1 0"/>
<feBlend mode="normal" in2="shape" result="effect1_innerShadow_2079_5444"/>
<feColorMatrix in="SourceAlpha" type="matrix" values="0 0 0 0 0 0 0 0 0 0 0 0 0 0 0 0 0 0 127 0" result="hardAlpha"/>
<feOffset dx="-2" dy="-2"/>
<feComposite in2="hardAlpha" operator="arithmetic" k2="-1" k3="1"/>
<feColorMatrix type="matrix" values="0 0 0 0 0.501961 0 0 0 0 0.501961 0 0 0 0 0.501961 0 0 0 1 0"/>
<feBlend mode="normal" in2="effect1_innerShadow_2079_5444" result="effect2_innerShadow_2079_5444"/>
</filter>
</defs>
</svg>
