<svg width="465" height="18" viewBox="0 0 465 18" fill="none" xmlns="http://www.w3.org/2000/svg">
<g filter="url(#filter0_ii_2079_5439)">
<rect width="465" height="17" fill="white"/>
<g clip-path="url(#clip0_2079_5439)">
<mask id="path-1-inside-1_2079_5439" fill="white">
<path d="M0 2H465V16H0V2Z"/>
</mask>
<path d="M0 2H465V16H0V2Z" fill="white"/>
<path d="M93.4299 4.88V4H94.3209V11.909H93.4299V5.76H91.6809V4.88H93.4299Z" fill="black"/>
<path d="M46 5.909H45V11.909H46V5.909Z" fill="black"/>
<path d="M10 7.909H9V9.909H10V7.909Z" fill="black"/>
<path d="M34 7.909H33V9.909H34V7.909Z" fill="black"/>
<path d="M21 7.909H22V9.909H21V7.909Z" fill="black"/>
<path d="M57 7.909H58V9.909H57V7.909Z" fill="black"/>
<path d="M70 7.909H69V9.909H70V7.909Z" fill="black"/>
<path d="M81 7.909H82V9.909H81V7.909Z" fill="black"/>
<path d="M105 7.909H106V9.909H105V7.909Z" fill="black"/>
<path d="M118 7.909H117V9.909H118V7.909Z" fill="black"/>
<path d="M129 7.909H130V9.909H129V7.909Z" fill="black"/>
<path d="M142 5.909H141V11.909H142V5.909Z" fill="black"/>
<path d="M153 7.909H154V9.909H153V7.909Z" fill="black"/>
<path d="M166 7.909H165V9.909H166V7.909Z" fill="black"/>
<path d="M177 7.909H178V9.909H177V7.909Z" fill="black"/>
<path d="M187.669 4.88V5.76H186.8V4.88H187.669Z" fill="black"/>
<path d="M190.309 4.88H187.669V4H190.309V4.88Z" fill="black"/>
<path d="M190.309 7.52V4.88H191.189V7.52H190.309Z" fill="black"/>
<path d="M190.309 7.52V8.4H189.44V7.52H190.309Z" fill="black"/>
<path d="M186.8 11.909V10.16H187.669V11.04H191.189V11.909H186.8Z" fill="black"/>
<path d="M188.549 9.269V10.16H187.669V9.269H188.549Z" fill="black"/>
<path d="M188.549 9.269V8.4H189.429V9.269H188.549Z" fill="black"/>
<path d="M201 7.909H202V9.909H201V7.909Z" fill="black"/>
<path d="M214 7.909H213V9.909H214V7.909Z" fill="black"/>
<path d="M225 7.909H226V9.909H225V7.909Z" fill="black"/>
<path d="M238 5.909H237V11.909H238V5.909Z" fill="black"/>
<path d="M249 7.909H250V9.909H249V7.909Z" fill="black"/>
<path d="M262 7.909H261V9.909H262V7.909Z" fill="black"/>
<path d="M273 7.909H274V9.909H273V7.909Z" fill="black"/>
<path d="M286.309 7.52V8.4H284.549V7.52H286.309Z" fill="black"/>
<path d="M286.309 4.88H287.189V7.52H286.309V4.88Z" fill="black"/>
<path d="M283.669 4.88V4H286.309V4.88H283.669Z" fill="black"/>
<path d="M283.669 4.88V5.76H282.8V4.88H283.669Z" fill="black"/>
<path d="M286.309 11.04H287.189V8.4H286.309V11.04Z" fill="black"/>
<path d="M283.669 11.04V11.92H286.309V11.04H283.669Z" fill="black"/>
<path d="M283.669 11.04H282.8V10.16H283.669V11.04Z" fill="black"/>
<path d="M297 7.909H298V9.909H297V7.909Z" fill="black"/>
<path d="M310 7.909H309V9.909H310V7.909Z" fill="black"/>
<path d="M321 7.909H322V9.909H321V7.909Z" fill="black"/>
<path d="M334 5.909H333V11.909H334V5.909Z" fill="black"/>
<path d="M345 7.909H346V9.909H345V7.909Z" fill="black"/>
<path d="M358 7.909H357V9.909H358V7.909Z" fill="black"/>
<path d="M369 7.909H370V9.909H369V7.909Z" fill="black"/>
<path d="M380.549 6.629V8.4H379.669V6.629H380.549Z" fill="black"/>
<path d="M380.549 6.629V4.88H381.44V4H382.309V9.269H383.189V10.16H382.309V11.909H381.44V10.16H378.8V8.4H379.669V9.269H381.44V6.629H380.549Z" fill="black"/>
<path d="M393 7.909H394V9.909H393V7.909Z" fill="black"/>
<path d="M406 7.909H405V9.909H406V7.909Z" fill="black"/>
<path d="M417 7.909H418V9.909H417V7.909Z" fill="black"/>
<path d="M430 5.909H429V11.909H430V5.909Z" fill="black"/>
<path d="M441 7.909H442V9.909H441V7.909Z" fill="black"/>
<path d="M454 7.909H453V9.909H454V7.909Z" fill="black"/>
<path d="M465 7.909H466V9.909H465V7.909Z" fill="black"/>
<path d="M478.309 11.04V11.92H475.669V11.04H478.309Z" fill="black"/>
<path d="M478.309 7.52H479.189V11.04H478.309V7.52Z" fill="black"/>
<path d="M478.309 7.52H475.669V8.4H474.8V4H479.189V4.88H475.669V6.629H478.309V7.52Z" fill="black"/>
<path d="M475.669 11.04H474.8V10.16H475.669V11.04Z" fill="black"/>
<path d="M489 7.909H490V9.909H489V7.909Z" fill="black"/>
<path d="M502 7.909H501V9.909H502V7.909Z" fill="black"/>
<path d="M513 7.909H514V9.909H513V7.909Z" fill="black"/>
<path d="M526 5.909H525V11.909H526V5.909Z" fill="black"/>
<path d="M537 7.909H538V9.909H537V7.909Z" fill="black"/>
<path d="M550 7.909H549V9.909H550V7.909Z" fill="black"/>
<path d="M561 7.909H562V9.909H561V7.909Z" fill="black"/>
<path d="M574.309 11.04V11.92H571.669V11.04H574.309Z" fill="black"/>
<path d="M574.309 8.4H575.189V11.04H574.309V8.4Z" fill="black"/>
<path d="M571.669 4.88V7.52H574.309V8.4H571.669V11.04H570.8V4.88H571.669Z" fill="black"/>
<path d="M574.309 4.88H571.669V4H574.309V4.88Z" fill="black"/>
<path d="M574.309 4.88H575.189V5.76H574.309V4.88Z" fill="black"/>
<path d="M585 7.909H586V9.909H585V7.909Z" fill="black"/>
<path d="M598 7.909H597V9.909H598V7.909Z" fill="black"/>
<path d="M609 7.909H610V9.909H609V7.909Z" fill="black"/>
<path d="M622 5.909H621V11.909H622V5.909Z" fill="black"/>
<path d="M633 7.909H634V9.909H633V7.909Z" fill="black"/>
<path d="M646 7.909H645V9.909H646V7.909Z" fill="black"/>
<path d="M657 7.909H658V9.909H657V7.909Z" fill="black"/>
<path d="M669.429 7.52V9.269H668.549V7.52H669.429Z" fill="black"/>
<path d="M670.309 5.76V7.52H669.429V5.76H670.309Z" fill="black"/>
<path d="M670.309 5.76V4.88H666.8V4H671.189V5.76H670.309Z" fill="black"/>
<path d="M668.549 9.269V11.909H667.669V9.269H668.549Z" fill="black"/>
<path d="M681 7.909H682V9.909H681V7.909Z" fill="black"/>
<path d="M694 7.909H693V9.909H694V7.909Z" fill="black"/>
<path d="M705 7.909H706V9.909H705V7.909Z" fill="black"/>
<path d="M718 5.909H717V11.909H718V5.909Z" fill="black"/>
<path d="M729 7.909H730V9.909H729V7.909Z" fill="black"/>
<path d="M742 7.909H741V9.909H742V7.909Z" fill="black"/>
<path d="M753 7.909H754V9.909H753V7.909Z" fill="black"/>
<path d="M763.669 8.4V11.04H762.8V8.4H763.669Z" fill="black"/>
<path fill-rule="evenodd" clip-rule="evenodd" d="M763.669 7.52V8.4H766.309V11.04H763.669V11.92H766.309V11.04H767.189V8.4H766.309V7.52H767.189V4.88H766.309V4H763.669V4.88H762.8V7.52H763.669ZM763.669 7.52V4.88H766.309V7.52H763.669Z" fill="black"/>
<path d="M777 7.909H778V9.909H777V7.909Z" fill="black"/>
<path d="M790 7.909H789V9.909H790V7.909Z" fill="black"/>
<path d="M801 7.909H802V9.909H801V7.909Z" fill="black"/>
<path d="M814 5.909H813V11.909H814V5.909Z" fill="black"/>
<path d="M825 7.909H826V9.909H825V7.909Z" fill="black"/>
<path d="M838 7.909H837V9.909H838V7.909Z" fill="black"/>
<path d="M849 7.909H850V9.909H849V7.909Z" fill="black"/>
<path d="M859.669 4.88V7.52H858.8V4.88H859.669Z" fill="black"/>
<path d="M862.309 4.88V4H859.669V4.88H862.309Z" fill="black"/>
<path d="M862.309 11.04H863.189V4.88H862.309V7.52H859.669V8.4H862.309V11.04Z" fill="black"/>
<path d="M859.669 11.04V11.92H862.309V11.04H859.669Z" fill="black"/>
<path d="M859.669 11.04H858.8V10.16H859.669V11.04Z" fill="black"/>
<path d="M873 7.909H874V9.909H873V7.909Z" fill="black"/>
<path d="M886 7.909H885V9.909H886V7.909Z" fill="black"/>
<path d="M897 7.909H898V9.909H897V7.909Z" fill="black"/>
<path d="M910 5.909H909V11.909H910V5.909Z" fill="black"/>
<path d="M921 7.909H922V9.909H921V7.909Z" fill="black"/>
<path d="M934 7.909H933V9.909H934V7.909Z" fill="black"/>
<path d="M945 7.909H946V9.909H945V7.909Z" fill="black"/>
<path d="M954.68 4.88V4H955.571V11.909H954.68V5.76H952.931V4.88H954.68Z" fill="black"/>
<path d="M957.538 4.88V11.04H956.669V4.88H957.538Z" fill="black"/>
<path d="M960.178 4.88H957.538V4H960.178V4.88Z" fill="black"/>
<path d="M960.178 11.04V11.92H957.538V11.04H960.178Z" fill="black"/>
<path d="M960.178 11.04H961.058V4.88H960.178V11.04Z" fill="black"/>
</g>
<path d="M465 15H0V17H465V15Z" fill="#C0C0C0" mask="url(#path-1-inside-1_2079_5439)"/>
<g clip-path="url(#clip1_2079_5439)">
<path d="M46 16H45V18H46V16Z" fill="#808080"/>
<path d="M142 16H141V18H142V16Z" fill="#808080"/>
<path d="M237 16H238V18H237V16Z" fill="#808080"/>
<path d="M334 16H333V18H334V16Z" fill="#808080"/>
<path d="M429 16H430V18H429V16Z" fill="#808080"/>
<path d="M526 16H525V18H526V16Z" fill="#808080"/>
<path d="M621 16H622V18H621V16Z" fill="#808080"/>
<path d="M718 16H717V18H718V16Z" fill="#808080"/>
<path d="M813 16H814V18H813V16Z" fill="#808080"/>
<path d="M910 16H909V18H910V16Z" fill="#808080"/>
</g>
</g>
<defs>
<filter id="filter0_ii_2079_5439" x="0" y="0" width="465" height="18" filterUnits="userSpaceOnUse" color-interpolation-filters="sRGB">
<feFlood flood-opacity="0" result="BackgroundImageFix"/>
<feBlend mode="normal" in="SourceGraphic" in2="BackgroundImageFix" result="shape"/>
<feColorMatrix in="SourceAlpha" type="matrix" values="0 0 0 0 0 0 0 0 0 0 0 0 0 0 0 0 0 0 127 0" result="hardAlpha"/>
<feOffset dy="2"/>
<feComposite in2="hardAlpha" operator="arithmetic" k2="-1" k3="1"/>
<feColorMatrix type="matrix" values="0 0 0 0 0 0 0 0 0 0 0 0 0 0 0 0 0 0 1 0"/>
<feBlend mode="normal" in2="shape" result="effect1_innerShadow_2079_5439"/>
<feColorMatrix in="SourceAlpha" type="matrix" values="0 0 0 0 0 0 0 0 0 0 0 0 0 0 0 0 0 0 127 0" result="hardAlpha"/>
<feOffset dy="1"/>
<feComposite in2="hardAlpha" operator="arithmetic" k2="-1" k3="1"/>
<feColorMatrix type="matrix" values="0 0 0 0 0.501961 0 0 0 0 0.501961 0 0 0 0 0.501961 0 0 0 1 0"/>
<feBlend mode="normal" in2="effect1_innerShadow_2079_5439" result="effect2_innerShadow_2079_5439"/>
</filter>
<clipPath id="clip0_2079_5439">
<path d="M0 2H465V16H0V2Z" fill="white"/>
</clipPath>
<clipPath id="clip1_2079_5439">
<rect width="420" height="2" fill="white" transform="translate(45 16)"/>
</clipPath>
</defs>
</svg>
