<svg xmlns="http://www.w3.org/2000/svg" width="456" height="8" viewBox="0 0 456 8" fill="none">
  <path d="M84.4299 0.88V0H85.3209V7.909H84.4299V1.76H82.6809V0.88H84.4299Z" fill="black"/>
  <path d="M37 1.909H36V7.909H37V1.909Z" fill="black"/>
  <path d="M1 3.909H0V5.909H1V3.909Z" fill="black"/>
  <path d="M25 3.909H24V5.909H25V3.909Z" fill="black"/>
  <path d="M12 3.909H13V5.909H12V3.909Z" fill="black"/>
  <path d="M48 3.909H49V5.909H48V3.909Z" fill="black"/>
  <path d="M61 3.909H60V5.909H61V3.909Z" fill="black"/>
  <path d="M72 3.909H73V5.909H72V3.909Z" fill="black"/>
  <path d="M96 3.909H97V5.909H96V3.909Z" fill="black"/>
  <path d="M109 3.909H108V5.909H109V3.909Z" fill="black"/>
  <path d="M120 3.909H121V5.909H120V3.909Z" fill="black"/>
  <path d="M133 1.909H132V7.909H133V1.909Z" fill="black"/>
  <path d="M144 3.909H145V5.909H144V3.909Z" fill="black"/>
  <path d="M157 3.909H156V5.909H157V3.909Z" fill="black"/>
  <path d="M168 3.909H169V5.909H168V3.909Z" fill="black"/>
  <path d="M178.669 0.88V1.76H177.8V0.88H178.669Z" fill="black"/>
  <path d="M181.309 0.88H178.669V0H181.309V0.88Z" fill="black"/>
  <path d="M181.309 3.52V0.88H182.189V3.52H181.309Z" fill="black"/>
  <path d="M181.309 3.52V4.4H180.44V3.52H181.309Z" fill="black"/>
  <path d="M177.8 7.909V6.16H178.669V7.04H182.189V7.909H177.8Z" fill="black"/>
  <path d="M179.549 5.269V6.16H178.669V5.269H179.549Z" fill="black"/>
  <path d="M179.549 5.269V4.4H180.429V5.269H179.549Z" fill="black"/>
  <path d="M192 3.909H193V5.909H192V3.909Z" fill="black"/>
  <path d="M205 3.909H204V5.909H205V3.909Z" fill="black"/>
  <path d="M216 3.909H217V5.909H216V3.909Z" fill="black"/>
  <path d="M229 1.909H228V7.909H229V1.909Z" fill="black"/>
  <path d="M240 3.909H241V5.909H240V3.909Z" fill="black"/>
  <path d="M253 3.909H252V5.909H253V3.909Z" fill="black"/>
  <path d="M264 3.909H265V5.909H264V3.909Z" fill="black"/>
  <path d="M277.309 3.52V4.4H275.549V3.52H277.309Z" fill="black"/>
  <path d="M277.309 0.88H278.189V3.52H277.309V0.88Z" fill="black"/>
  <path d="M274.669 0.88V0H277.309V0.88H274.669Z" fill="black"/>
  <path d="M274.669 0.88V1.76H273.8V0.88H274.669Z" fill="black"/>
  <path d="M277.309 7.04H278.189V4.4H277.309V7.04Z" fill="black"/>
  <path d="M274.669 7.04V7.92H277.309V7.04H274.669Z" fill="black"/>
  <path d="M274.669 7.04H273.8V6.16H274.669V7.04Z" fill="black"/>
  <path d="M288 3.909H289V5.909H288V3.909Z" fill="black"/>
  <path d="M301 3.909H300V5.909H301V3.909Z" fill="black"/>
  <path d="M312 3.909H313V5.909H312V3.909Z" fill="black"/>
  <path d="M325 1.909H324V7.909H325V1.909Z" fill="black"/>
  <path d="M336 3.909H337V5.909H336V3.909Z" fill="black"/>
  <path d="M349 3.909H348V5.909H349V3.909Z" fill="black"/>
  <path d="M360 3.909H361V5.909H360V3.909Z" fill="black"/>
  <path d="M371.549 2.629V4.4H370.669V2.629H371.549Z" fill="black"/>
  <path d="M371.549 2.629V0.88H372.44V0H373.309V5.269H374.189V6.16H373.309V7.909H372.44V6.16H369.8V4.4H370.669V5.269H372.44V2.629H371.549Z" fill="black"/>
  <path d="M384 3.909H385V5.909H384V3.909Z" fill="black"/>
  <path d="M397 3.909H396V5.909H397V3.909Z" fill="black"/>
  <path d="M408 3.909H409V5.909H408V3.909Z" fill="black"/>
  <path d="M421 1.909H420V7.909H421V1.909Z" fill="black"/>
  <path d="M432 3.909H433V5.909H432V3.909Z" fill="black"/>
  <path d="M445 3.909H444V5.909H445V3.909Z" fill="black"/>
  <path d="M456 3.909H457V5.909H456V3.909Z" fill="black"/>
  <path d="M469.309 7.04V7.92H466.669V7.04H469.309Z" fill="black"/>
  <path d="M469.309 3.52H470.189V7.04H469.309V3.52Z" fill="black"/>
  <path d="M469.309 3.52H466.669V4.4H465.8V0H470.189V0.88H466.669V2.629H469.309V3.52Z" fill="black"/>
  <path d="M466.669 7.04H465.8V6.16H466.669V7.04Z" fill="black"/>
  <path d="M480 3.909H481V5.909H480V3.909Z" fill="black"/>
  <path d="M493 3.909H492V5.909H493V3.909Z" fill="black"/>
  <path d="M504 3.909H505V5.909H504V3.909Z" fill="black"/>
  <path d="M517 1.909H516V7.909H517V1.909Z" fill="black"/>
  <path d="M528 3.909H529V5.909H528V3.909Z" fill="black"/>
  <path d="M541 3.909H540V5.909H541V3.909Z" fill="black"/>
  <path d="M552 3.909H553V5.909H552V3.909Z" fill="black"/>
  <path d="M565.309 7.04V7.92H562.669V7.04H565.309Z" fill="black"/>
  <path d="M565.309 4.4H566.189V7.04H565.309V4.4Z" fill="black"/>
  <path d="M562.669 0.88V3.52H565.309V4.4H562.669V7.04H561.8V0.88H562.669Z" fill="black"/>
  <path d="M565.309 0.88H562.669V0H565.309V0.88Z" fill="black"/>
  <path d="M565.309 0.88H566.189V1.76H565.309V0.88Z" fill="black"/>
  <path d="M576 3.909H577V5.909H576V3.909Z" fill="black"/>
  <path d="M589 3.909H588V5.909H589V3.909Z" fill="black"/>
  <path d="M600 3.909H601V5.909H600V3.909Z" fill="black"/>
  <path d="M613 1.909H612V7.909H613V1.909Z" fill="black"/>
  <path d="M624 3.909H625V5.909H624V3.909Z" fill="black"/>
  <path d="M637 3.909H636V5.909H637V3.909Z" fill="black"/>
  <path d="M648 3.909H649V5.909H648V3.909Z" fill="black"/>
  <path d="M660.429 3.52V5.269H659.549V3.52H660.429Z" fill="black"/>
  <path d="M661.309 1.76V3.52H660.429V1.76H661.309Z" fill="black"/>
  <path d="M661.309 1.76V0.88H657.8V0H662.189V1.76H661.309Z" fill="black"/>
  <path d="M659.549 5.269V7.909H658.669V5.269H659.549Z" fill="black"/>
  <path d="M672 3.909H673V5.909H672V3.909Z" fill="black"/>
  <path d="M685 3.909H684V5.909H685V3.909Z" fill="black"/>
  <path d="M696 3.909H697V5.909H696V3.909Z" fill="black"/>
  <path d="M709 1.909H708V7.909H709V1.909Z" fill="black"/>
  <path d="M720 3.909H721V5.909H720V3.909Z" fill="black"/>
  <path d="M733 3.909H732V5.909H733V3.909Z" fill="black"/>
  <path d="M744 3.909H745V5.909H744V3.909Z" fill="black"/>
  <path d="M754.669 4.4V7.04H753.8V4.4H754.669Z" fill="black"/>
  <path fill-rule="evenodd" clip-rule="evenodd" d="M754.669 3.52V4.4H757.309V7.04H754.669V7.92H757.309V7.04H758.189V4.4H757.309V3.52H758.189V0.88H757.309V0H754.669V0.88H753.8V3.52H754.669ZM754.669 3.52V0.88H757.309V3.52H754.669Z" fill="black"/>
  <path d="M768 3.909H769V5.909H768V3.909Z" fill="black"/>
  <path d="M781 3.909H780V5.909H781V3.909Z" fill="black"/>
  <path d="M792 3.909H793V5.909H792V3.909Z" fill="black"/>
  <path d="M805 1.909H804V7.909H805V1.909Z" fill="black"/>
  <path d="M816 3.909H817V5.909H816V3.909Z" fill="black"/>
  <path d="M829 3.909H828V5.909H829V3.909Z" fill="black"/>
  <path d="M840 3.909H841V5.909H840V3.909Z" fill="black"/>
  <path d="M850.669 0.88V3.52H849.8V0.88H850.669Z" fill="black"/>
  <path d="M853.309 0.88V0H850.669V0.88H853.309Z" fill="black"/>
  <path d="M853.309 7.04H854.189V0.88H853.309V3.52H850.669V4.4H853.309V7.04Z" fill="black"/>
  <path d="M850.669 7.04V7.92H853.309V7.04H850.669Z" fill="black"/>
  <path d="M850.669 7.04H849.8V6.16H850.669V7.04Z" fill="black"/>
  <path d="M864 3.909H865V5.909H864V3.909Z" fill="black"/>
  <path d="M877 3.909H876V5.909H877V3.909Z" fill="black"/>
  <path d="M888 3.909H889V5.909H888V3.909Z" fill="black"/>
  <path d="M901 1.909H900V7.909H901V1.909Z" fill="black"/>
  <path d="M912 3.909H913V5.909H912V3.909Z" fill="black"/>
  <path d="M925 3.909H924V5.909H925V3.909Z" fill="black"/>
  <path d="M936 3.909H937V5.909H936V3.909Z" fill="black"/>
  <path d="M945.68 0.88V0H946.571V7.909H945.68V1.76H943.931V0.88H945.68Z" fill="black"/>
  <path d="M948.538 0.88V7.04H947.669V0.88H948.538Z" fill="black"/>
  <path d="M951.178 0.88H948.538V0H951.178V0.88Z" fill="black"/>
  <path d="M951.178 7.04V7.92H948.538V7.04H951.178Z" fill="black"/>
  <path d="M951.178 7.04H952.058V0.88H951.178V7.04Z" fill="black"/>
</svg>