<svg width="465" height="14" viewBox="0 0 465 14" fill="none" xmlns="http://www.w3.org/2000/svg">
<g clip-path="url(#clip0_2079_5440)">
<mask id="path-1-inside-1_2079_5440" fill="white">
<path d="M0 0H465V14H0V0Z"/>
</mask>
<path d="M0 0H465V14H0V0Z" fill="white"/>
<path d="M93.4299 2.88V2H94.3209V9.909H93.4299V3.76H91.6809V2.88H93.4299Z" fill="black"/>
<path d="M46 3.909H45V9.909H46V3.909Z" fill="black"/>
<path d="M10 5.909H9V7.909H10V5.909Z" fill="black"/>
<path d="M34 5.909H33V7.909H34V5.909Z" fill="black"/>
<path d="M21 5.909H22V7.909H21V5.909Z" fill="black"/>
<path d="M57 5.909H58V7.909H57V5.909Z" fill="black"/>
<path d="M70 5.909H69V7.909H70V5.909Z" fill="black"/>
<path d="M81 5.909H82V7.909H81V5.909Z" fill="black"/>
<path d="M105 5.909H106V7.909H105V5.909Z" fill="black"/>
<path d="M118 5.909H117V7.909H118V5.909Z" fill="black"/>
<path d="M129 5.909H130V7.909H129V5.909Z" fill="black"/>
<path d="M142 3.909H141V9.909H142V3.909Z" fill="black"/>
<path d="M153 5.909H154V7.909H153V5.909Z" fill="black"/>
<path d="M166 5.909H165V7.909H166V5.909Z" fill="black"/>
<path d="M177 5.909H178V7.909H177V5.909Z" fill="black"/>
<path d="M187.669 2.88V3.76H186.8V2.88H187.669Z" fill="black"/>
<path d="M190.309 2.88H187.669V2H190.309V2.88Z" fill="black"/>
<path d="M190.309 5.52V2.88H191.189V5.52H190.309Z" fill="black"/>
<path d="M190.309 5.52V6.4H189.44V5.52H190.309Z" fill="black"/>
<path d="M186.8 9.909V8.16H187.669V9.04H191.189V9.909H186.8Z" fill="black"/>
<path d="M188.549 7.269V8.16H187.669V7.269H188.549Z" fill="black"/>
<path d="M188.549 7.269V6.4H189.429V7.269H188.549Z" fill="black"/>
<path d="M201 5.909H202V7.909H201V5.909Z" fill="black"/>
<path d="M214 5.909H213V7.909H214V5.909Z" fill="black"/>
<path d="M225 5.909H226V7.909H225V5.909Z" fill="black"/>
<path d="M238 3.909H237V9.909H238V3.909Z" fill="black"/>
<path d="M249 5.909H250V7.909H249V5.909Z" fill="black"/>
<path d="M262 5.909H261V7.909H262V5.909Z" fill="black"/>
<path d="M273 5.909H274V7.909H273V5.909Z" fill="black"/>
<path d="M286.309 5.52V6.4H284.549V5.52H286.309Z" fill="black"/>
<path d="M286.309 2.88H287.189V5.52H286.309V2.88Z" fill="black"/>
<path d="M283.669 2.88V2H286.309V2.88H283.669Z" fill="black"/>
<path d="M283.669 2.88V3.76H282.8V2.88H283.669Z" fill="black"/>
<path d="M286.309 9.04H287.189V6.4H286.309V9.04Z" fill="black"/>
<path d="M283.669 9.04V9.92H286.309V9.04H283.669Z" fill="black"/>
<path d="M283.669 9.04H282.8V8.16H283.669V9.04Z" fill="black"/>
<path d="M297 5.909H298V7.909H297V5.909Z" fill="black"/>
<path d="M310 5.909H309V7.909H310V5.909Z" fill="black"/>
<path d="M321 5.909H322V7.909H321V5.909Z" fill="black"/>
<path d="M334 3.909H333V9.909H334V3.909Z" fill="black"/>
<path d="M345 5.909H346V7.909H345V5.909Z" fill="black"/>
<path d="M358 5.909H357V7.909H358V5.909Z" fill="black"/>
<path d="M369 5.909H370V7.909H369V5.909Z" fill="black"/>
<path d="M380.549 4.629V6.4H379.669V4.629H380.549Z" fill="black"/>
<path d="M380.549 4.629V2.88H381.44V2H382.309V7.269H383.189V8.16H382.309V9.909H381.44V8.16H378.8V6.4H379.669V7.269H381.44V4.629H380.549Z" fill="black"/>
<path d="M393 5.909H394V7.909H393V5.909Z" fill="black"/>
<path d="M406 5.909H405V7.909H406V5.909Z" fill="black"/>
<path d="M417 5.909H418V7.909H417V5.909Z" fill="black"/>
<path d="M430 3.909H429V9.909H430V3.909Z" fill="black"/>
<path d="M441 5.909H442V7.909H441V5.909Z" fill="black"/>
<path d="M454 5.909H453V7.909H454V5.909Z" fill="black"/>
<path d="M465 5.909H466V7.909H465V5.909Z" fill="black"/>
<path d="M478.309 9.04V9.92H475.669V9.04H478.309Z" fill="black"/>
<path d="M478.309 5.52H479.189V9.04H478.309V5.52Z" fill="black"/>
<path d="M478.309 5.52H475.669V6.4H474.8V2H479.189V2.88H475.669V4.629H478.309V5.52Z" fill="black"/>
<path d="M475.669 9.04H474.8V8.16H475.669V9.04Z" fill="black"/>
<path d="M489 5.909H490V7.909H489V5.909Z" fill="black"/>
<path d="M502 5.909H501V7.909H502V5.909Z" fill="black"/>
<path d="M513 5.909H514V7.909H513V5.909Z" fill="black"/>
<path d="M526 3.909H525V9.909H526V3.909Z" fill="black"/>
<path d="M537 5.909H538V7.909H537V5.909Z" fill="black"/>
<path d="M550 5.909H549V7.909H550V5.909Z" fill="black"/>
<path d="M561 5.909H562V7.909H561V5.909Z" fill="black"/>
<path d="M574.309 9.04V9.92H571.669V9.04H574.309Z" fill="black"/>
<path d="M574.309 6.4H575.189V9.04H574.309V6.4Z" fill="black"/>
<path d="M571.669 2.88V5.52H574.309V6.4H571.669V9.04H570.8V2.88H571.669Z" fill="black"/>
<path d="M574.309 2.88H571.669V2H574.309V2.88Z" fill="black"/>
<path d="M574.309 2.88H575.189V3.76H574.309V2.88Z" fill="black"/>
<path d="M585 5.909H586V7.909H585V5.909Z" fill="black"/>
<path d="M598 5.909H597V7.909H598V5.909Z" fill="black"/>
<path d="M609 5.909H610V7.909H609V5.909Z" fill="black"/>
<path d="M622 3.909H621V9.909H622V3.909Z" fill="black"/>
<path d="M633 5.909H634V7.909H633V5.909Z" fill="black"/>
<path d="M646 5.909H645V7.909H646V5.909Z" fill="black"/>
<path d="M657 5.909H658V7.909H657V5.909Z" fill="black"/>
<path d="M669.429 5.52V7.269H668.549V5.52H669.429Z" fill="black"/>
<path d="M670.309 3.76V5.52H669.429V3.76H670.309Z" fill="black"/>
<path d="M670.309 3.76V2.88H666.8V2H671.189V3.76H670.309Z" fill="black"/>
<path d="M668.549 7.269V9.909H667.669V7.269H668.549Z" fill="black"/>
<path d="M681 5.909H682V7.909H681V5.909Z" fill="black"/>
<path d="M694 5.909H693V7.909H694V5.909Z" fill="black"/>
<path d="M705 5.909H706V7.909H705V5.909Z" fill="black"/>
<path d="M718 3.909H717V9.909H718V3.909Z" fill="black"/>
<path d="M729 5.909H730V7.909H729V5.909Z" fill="black"/>
<path d="M742 5.909H741V7.909H742V5.909Z" fill="black"/>
<path d="M753 5.909H754V7.909H753V5.909Z" fill="black"/>
<path d="M763.669 6.4V9.04H762.8V6.4H763.669Z" fill="black"/>
<path fill-rule="evenodd" clip-rule="evenodd" d="M763.669 5.52V6.4H766.309V9.04H763.669V9.92H766.309V9.04H767.189V6.4H766.309V5.52H767.189V2.88H766.309V2H763.669V2.88H762.8V5.52H763.669ZM763.669 5.52V2.88H766.309V5.52H763.669Z" fill="black"/>
<path d="M777 5.909H778V7.909H777V5.909Z" fill="black"/>
<path d="M790 5.909H789V7.909H790V5.909Z" fill="black"/>
<path d="M801 5.909H802V7.909H801V5.909Z" fill="black"/>
<path d="M814 3.909H813V9.909H814V3.909Z" fill="black"/>
<path d="M825 5.909H826V7.909H825V5.909Z" fill="black"/>
<path d="M838 5.909H837V7.909H838V5.909Z" fill="black"/>
<path d="M849 5.909H850V7.909H849V5.909Z" fill="black"/>
<path d="M859.669 2.88V5.52H858.8V2.88H859.669Z" fill="black"/>
<path d="M862.309 2.88V2H859.669V2.88H862.309Z" fill="black"/>
<path d="M862.309 9.04H863.189V2.88H862.309V5.52H859.669V6.4H862.309V9.04Z" fill="black"/>
<path d="M859.669 9.04V9.92H862.309V9.04H859.669Z" fill="black"/>
<path d="M859.669 9.04H858.8V8.16H859.669V9.04Z" fill="black"/>
<path d="M873 5.909H874V7.909H873V5.909Z" fill="black"/>
<path d="M886 5.909H885V7.909H886V5.909Z" fill="black"/>
<path d="M897 5.909H898V7.909H897V5.909Z" fill="black"/>
<path d="M910 3.909H909V9.909H910V3.909Z" fill="black"/>
<path d="M921 5.909H922V7.909H921V5.909Z" fill="black"/>
<path d="M934 5.909H933V7.909H934V5.909Z" fill="black"/>
<path d="M945 5.909H946V7.909H945V5.909Z" fill="black"/>
<path d="M954.68 2.88V2H955.571V9.909H954.68V3.76H952.931V2.88H954.68Z" fill="black"/>
<path d="M957.538 2.88V9.04H956.669V2.88H957.538Z" fill="black"/>
<path d="M960.178 2.88H957.538V2H960.178V2.88Z" fill="black"/>
<path d="M960.178 9.04V9.92H957.538V9.04H960.178Z" fill="black"/>
<path d="M960.178 9.04H961.058V2.88H960.178V9.04Z" fill="black"/>
</g>
<path d="M465 13H0V15H465V13Z" fill="#C0C0C0" mask="url(#path-1-inside-1_2079_5440)"/>
<defs>
<clipPath id="clip0_2079_5440">
<path d="M0 0H465V14H0V0Z" fill="white"/>
</clipPath>
</defs>
</svg>
